<?xml version="1.0" encoding="utf-8"?>
<!-- Generator: Adobe Illustrator 28.1.0, SVG Export Plug-In . SVG Version: 6.00 Build 0)  -->
<svg version="1.1" id="图层_1" xmlns="http://www.w3.org/2000/svg" xmlns:xlink="http://www.w3.org/1999/xlink" x="0px" y="0px"
	 viewBox="0 0 1280 800" style="enable-background:new 0 0 1280 800;" xml:space="preserve">
<style type="text/css">
	.st0{fill:url(#SVGID_1_);}
	.st1{fill:url(#SVGID_00000081623949429201242800000004808011686845804442_);}
	.st2{fill:url(#SVGID_00000121260107779706907600000004202017023425702811_);}
</style>
<linearGradient id="SVGID_1_" gradientUnits="userSpaceOnUse" x1="574.3123" y1="584.2" x2="769.1503" y2="246.7307">
	<stop  offset="4.475343e-07" style="stop-color:#BE831E"/>
	<stop  offset="1" style="stop-color:#D9A421"/>
</linearGradient>
<path class="st0" d="M727,607H617c-6.6,0-12-5.4-12-12V235c0-6.6,5.4-12,12-12h110c6.6,0,12,5.4,12,12v360
	C739,601.6,733.6,607,727,607z"/>
<linearGradient id="SVGID_00000116951541065929807210000014135569221208195458_" gradientUnits="userSpaceOnUse" x1="515.7219" y1="594.2514" x2="666.8612" y2="332.4705">
	<stop  offset="4.475343e-07" style="stop-color:#E1B026"/>
	<stop  offset="1" style="stop-color:#ECCD48"/>
</linearGradient>
<path style="fill:url(#SVGID_00000116951541065929807210000014135569221208195458_);" d="M642,607H541c-6.6,0-12-5.4-12-12V331
	c0-6.6,5.4-12,12-12h101c6.6,0,12,5.4,12,12v264C654,601.6,648.6,607,642,607z"/>
<linearGradient id="SVGID_00000181051789941355006720000006993570112663705741_" gradientUnits="userSpaceOnUse" x1="458.3816" y1="605.6019" x2="567.318" y2="416.9185">
	<stop  offset="2.131116e-07" style="stop-color:#F1DA5F"/>
	<stop  offset="1" style="stop-color:#F3E179"/>
</linearGradient>
<path style="fill:url(#SVGID_00000181051789941355006720000006993570112663705741_);" d="M562,607h-98c-6.6,0-12-5.4-12-12V427
	c0-6.6,5.4-12,12-12h98c6.6,0,12,5.4,12,12v168C574,601.6,568.6,607,562,607z"/>
</svg>
